<svg width="128" height="128" viewBox="0 0 128 128" fill="none" xmlns="http://www.w3.org/2000/svg">
<path fill-rule="evenodd" clip-rule="evenodd" d="M5.6665 37.9697C5.6665 28.7817 13.1149 21.3333 22.3029 21.3333H56.9493C59.7108 21.3333 61.9493 23.5719 61.9493 26.3333C61.9493 29.0947 59.7108 31.3333 56.9493 31.3333H22.3029C18.6377 31.3333 15.6665 34.3045 15.6665 37.9697V100.03C15.6665 103.695 18.6377 106.667 22.3029 106.667H106.02C109.685 106.667 112.656 103.695 112.656 100.03V37.9697C112.656 34.3045 109.685 31.3333 106.02 31.3333H105.404C102.642 31.3333 100.404 29.0947 100.404 26.3333C100.404 23.5719 102.642 21.3333 105.404 21.3333H106.02C115.208 21.3333 122.656 28.7817 122.656 37.9697V100.03C122.656 109.218 115.208 116.667 106.02 116.667H22.3029C13.1149 116.667 5.6665 109.218 5.6665 100.03V37.9697Z" fill="black"/>
<path fill-rule="evenodd" clip-rule="evenodd" d="M82.4583 2.66701C84.4422 2.64453 86.2517 3.79719 87.0699 5.60463L108.727 53.443C109.865 55.9587 108.749 58.9212 106.234 60.0601C103.718 61.1989 100.755 60.0828 99.6165 57.5671L90.1183 36.5859H75.6389L66.7518 57.4634C65.6703 60.0042 62.7338 61.1872 60.193 60.1056C57.6522 59.0241 56.4692 56.0875 57.5508 53.5467L77.9144 5.70835C78.6915 3.88284 80.4744 2.68948 82.4583 2.66701ZM79.8957 26.5859H85.5912L82.6558 20.1017L79.8957 26.5859Z" fill="black"/>
<path fill-rule="evenodd" clip-rule="evenodd" d="M52.4504 50.3795C54.4031 52.3322 54.4031 55.498 52.4504 57.4506C50.1662 59.7349 48.6106 62.6452 47.9804 65.8135C47.3501 68.9819 47.6736 72.266 48.9098 75.2505C50.146 78.235 52.2395 80.786 54.9255 82.5807C57.6115 84.3754 60.7694 85.3334 63.9998 85.3334C67.2303 85.3334 70.3882 84.3754 73.0742 82.5807C75.7602 80.786 77.8536 78.235 79.0899 75.2505C80.3261 72.266 80.6496 68.9819 80.0193 65.8135C79.3891 62.6452 77.8335 59.7349 75.5493 57.4506C73.5966 55.498 73.5966 52.3322 75.5493 50.3795C77.5019 48.4269 80.6677 48.4269 82.6203 50.3795C86.3031 54.0623 88.8111 58.7545 89.8272 63.8626C90.8433 68.9708 90.3218 74.2656 88.3287 79.0773C86.3356 83.8891 82.9604 88.0018 78.6299 90.8954C74.2994 93.7889 69.2081 95.3334 63.9998 95.3334C58.7916 95.3334 53.7003 93.7889 49.3698 90.8954C45.0393 88.0018 41.6641 83.8891 39.671 79.0773C37.6779 74.2656 37.1564 68.9708 38.1725 63.8626C39.1886 58.7545 41.6966 54.0623 45.3794 50.3795C47.332 48.4269 50.4978 48.4269 52.4504 50.3795Z" fill="black"/>
</svg>
