<svg width="128" height="128" viewBox="0 0 128 128" fill="none" xmlns="http://www.w3.org/2000/svg">
<path fill-rule="evenodd" clip-rule="evenodd" d="M6.78821 32.9697C6.78821 24.401 13.7346 17.4546 22.3034 17.4546H54.9498C57.092 17.4546 58.8286 19.1912 58.8286 21.3334C58.8286 23.4756 57.092 25.2122 54.9498 25.2122H22.3034C18.019 25.2122 14.5458 28.6854 14.5458 32.9697V95.0303C14.5458 99.3147 18.019 102.788 22.3034 102.788H106.021C110.305 102.788 113.778 99.3147 113.778 95.0303V32.9698C113.778 28.6854 110.305 25.2122 106.021 25.2122H104.404C102.262 25.2122 100.526 23.4756 100.526 21.3334C100.526 19.1912 102.262 17.4546 104.404 17.4546H106.021C114.589 17.4546 121.536 24.401 121.536 32.9698V95.0303C121.536 103.599 114.589 110.546 106.021 110.546H22.3034C13.7346 110.546 6.78821 103.599 6.78821 95.0303V32.9697Z" fill="black"/>
<path fill-rule="evenodd" clip-rule="evenodd" d="M79.4711 6.78809C81.0101 6.77066 82.4138 7.66484 83.0486 9.06698L104.705 56.9054C105.589 58.8569 104.723 61.1551 102.771 62.0386C100.82 62.922 98.5215 62.0562 97.638 60.1047L87.8415 38.4646H71.8977L62.7203 60.0242C61.8813 61.9953 59.6032 62.9129 57.6322 62.0739C55.6612 61.2349 54.7435 58.9569 55.5825 56.9858L75.9461 9.14744C76.549 7.73128 77.9321 6.80553 79.4711 6.78809ZM75.1999 30.707H84.3296L79.6243 20.3132L75.1999 30.707Z" fill="black"/>
<path fill-rule="evenodd" clip-rule="evenodd" d="M51.6581 46.1723C53.1729 47.6871 53.1729 50.143 51.6581 51.6577C49.2171 54.0988 47.5547 57.2089 46.8812 60.5947C46.2077 63.9806 46.5533 67.4901 47.8744 70.6795C49.1955 73.8689 51.4327 76.595 54.3031 78.5129C57.1735 80.4308 60.5482 81.4545 64.0003 81.4545C67.4525 81.4545 70.8272 80.4308 73.6976 78.5129C76.568 76.595 78.8051 73.8689 80.1262 70.6795C81.4473 67.4901 81.793 63.9806 81.1195 60.5947C80.446 57.2089 78.7836 54.0988 76.3426 51.6577C74.8278 50.143 74.8278 47.6871 76.3426 46.1723C77.8573 44.6575 80.3132 44.6575 81.828 46.1723C85.354 49.6983 87.7552 54.1906 88.728 59.0813C89.7008 63.972 89.2015 69.0413 87.2933 73.6482C85.3851 78.2551 82.1536 82.1927 78.0074 84.9631C73.8613 87.7334 68.9868 89.2121 64.0003 89.2121C59.0139 89.2121 54.1393 87.7334 49.9932 84.9631C45.8471 82.1927 42.6156 78.2551 40.7074 73.6482C38.7991 69.0413 38.2998 63.972 39.2727 59.0813C40.2455 54.1906 42.6467 49.6983 46.1727 46.1723C47.6874 44.6575 50.1434 44.6575 51.6581 46.1723Z" fill="black"/>
</svg>
